<svg width="71" height="94" viewBox="0 0 71 94" fill="none" xmlns="http://www.w3.org/2000/svg">
<path d="M19.3475 19.4181C19.525 22.8746 19.9687 26.2533 20.6787 29.4767L17.1287 34.1371C15.9158 29.4767 15.1467 24.5445 14.8804 19.4181H19.3475ZM48.5167 66.0993C51.0312 67.0314 53.605 67.6139 56.2083 67.847V73.6336C52.3033 73.284 48.5462 72.2743 44.9667 70.7208L48.5167 66.0993ZM22.1875 11.6509H11.8333C10.2062 11.6509 8.875 13.3985 8.875 15.5345C8.875 52.0018 31.3879 81.5562 59.1667 81.5562C60.7937 81.5562 62.125 79.8085 62.125 77.6725V64.1187C62.125 61.9827 60.7937 60.2351 59.1667 60.2351C55.4983 60.2351 51.9188 59.4583 48.6054 58.0214C48.3117 57.8816 48.0006 57.8157 47.6883 57.8272C46.9192 57.8272 46.1796 58.2156 45.5879 58.9535L39.0796 67.4974C30.694 61.8677 23.8726 52.9128 19.5842 41.9043L26.0925 33.3604C26.9208 32.2729 27.1575 30.7583 26.8321 29.3991C25.7098 24.9253 25.1406 20.2446 25.1458 15.5345C25.1458 13.3985 23.8146 11.6509 22.1875 11.6509Z" fill="#444444"/>
</svg>
